# xmcd CD database file
#
# Track frame offsets:
#	150
#	22302
#	39182
#	58380
#	75812
#	91277
#	105812
#	120990
#	136387
#	157740
#
# Disc length: 2279 seconds
#
# Revision: 2
# Processed by: cddbd v1.4b41PL1 Copyright (c) Steve Scherf et al.
# Submitted via: Feurio! 1.50.2ß - http://www.feurio.com
#
DISCID=6908e50a
DTITLE=Agapito Pascual - El café en pilón
DYEAR=1900
DGENRE=
TTITLE0=El café en pilón
TTITLE1=Yo tengo mi swing
TTITLE2=La rosa hermosa
TTITLE3=Mi bello pais
TTITLE4=La mujer dura
TTITLE5=El tristecito
TTITLE6=Las mujeres de mi pais
TTITLE7=Te sacaré cuenta
TTITLE8=El remeniaito
TTITLE9=Mi chula linda
EXTD=
EXTT0=
EXTT1=
EXTT2=
EXTT3=
EXTT4=
EXTT5=
EXTT6=
EXTT7=
EXTT8=
EXTT9=
PLAYORDER=
